<svg width="512" height="512" viewBox="0 0 512 512" fill="none" xmlns="http://www.w3.org/2000/svg">
<g clip-path="url(#clip0_5_6)">
<path d="M402 0H110C49.2487 0 0 49.2487 0 110V402C0 462.751 49.2487 512 110 512H402C462.751 512 512 462.751 512 402V110C512 49.2487 462.751 0 402 0Z" fill="#FDFCF8"/>
<path d="M229.451 98.9883V234.975H238.973C253.621 234.975 265.584 232.777 274.861 228.383C284.139 223.988 291.951 216.583 298.299 206.166C304.809 195.749 309.041 181.671 310.994 163.93H319.539V330.189H310.994C307.902 298.777 299.438 278.106 285.604 268.178C271.932 258.087 256.388 253.041 238.973 253.041H229.451V354.359C229.451 371.286 230.346 381.866 232.137 386.098C234.09 390.329 237.752 394.073 243.123 397.328C248.657 400.421 256.062 401.967 265.34 401.967H276.326V411H103.23V401.967H114.217C123.82 401.967 131.551 400.258 137.41 396.84C141.642 394.561 144.897 390.655 147.176 385.121C148.966 381.215 149.861 370.961 149.861 354.359V136.586C149.861 119.659 148.966 109.079 147.176 104.848C145.385 100.616 141.723 96.9538 136.189 93.8613C130.818 90.6061 123.494 88.9785 114.217 88.9785H103.23V79.9453H382.527V174.916H372.518C370.239 152.618 364.38 136.098 354.939 125.355C345.662 114.613 332.153 107.045 314.412 102.65C304.646 100.209 286.58 98.9883 260.213 98.9883H229.451Z" fill="black"/>
<path d="M375.88 364.22L393.8 369.54C387.92 386.34 380.313 400.9 370.98 413.22C361.647 425.54 350.54 435.947 337.66 444.44C324.873 452.84 310.08 459.7 293.28 465.02C292.72 463.527 291.787 461.753 290.48 459.7C289.173 457.647 287.82 455.593 286.42 453.54C285.113 451.58 283.853 449.947 282.64 448.64C298.787 444.347 312.927 438.513 325.06 431.14C337.193 423.767 347.46 414.62 355.86 403.7C364.26 392.687 370.933 379.527 375.88 364.22ZM321.7 365.34C326.46 379.247 333.04 391.707 341.44 402.72C349.84 413.733 360.2 423.067 372.52 430.72C384.933 438.373 399.4 444.067 415.92 447.8C414.613 449.107 413.167 450.787 411.58 452.84C410.087 454.893 408.64 456.947 407.24 459C405.84 461.147 404.72 463.013 403.88 464.6C386.427 460.12 371.4 453.587 358.8 445C346.2 436.32 335.513 425.773 326.74 413.36C318.06 400.947 310.78 386.62 304.9 370.38L321.7 365.34ZM285.16 355.26H413.4V371.64H285.16V355.26ZM340.32 333H357.54V365.2H340.32V333Z" fill="#C2410C"/>
</g>
<defs>
<clipPath id="clip0_5_6">
<rect width="512" height="512" fill="white"/>
</clipPath>
</defs>
</svg>
